# xmcd
# 
# Track frame offsets:
#     150
#     24297
#     38705
#     55257
#     70752
#     111822
#     129200
#     160547
#     176107
#     197677
#     240945
#     263742
# 
# Disc length: 3932
# 
# Revision: 1
# Processed by: cddbd v1.5.2PL0 Copyright (c) Steve Scherf et al.
# Submitted via: BonkEnc v1.0.8
# 
DISCID=8f0f5a0c
DTITLE=Kansas - The Best Of Kansas
DYEAR=1999
DGENRE=Rock
TTITLE0=Carry On Wayward Son
TTITLE1=Point Of Know Return
TTITLE2=Fight Fire With Fire
TTITLE3=Dust In The Wind
TTITLE4=Song For America
TTITLE5=Hold On
TTITLE6=No One Together
TTITLE7=Play The Game Tonight
TTITLE8=The Wall
TTITLE9=The Pinnacle
TTITLE10=The Devil Game
TTITLE11=Closet Chronicles
EXTD=YEAR: 1999 ID3G: 17
EXTT0=
EXTT1=
EXTT2=
EXTT3=
EXTT4=
EXTT5=
EXTT6=
EXTT7=
EXTT8=
EXTT9=
EXTT10=
EXTT11=
PLAYORDER=
